HIERARCHY
ROOT hips
{
  OFFSET 0 10.6860622 2.3727825e-15
  CHANNELS 6 Xposition Yposition Zposition Yrotation Xrotation Zrotation
  JOINT leftUpperLeg
  {
    OFFSET 0.6642549969 -0.9402397400000004 0
    CHANNELS 3 Yrotation Xrotation Zrotation
    JOINT leftLowerLeg
    {
      OFFSET 0 -3.997221335632195 0
      CHANNELS 3 Yrotation Xrotation Zrotation
      JOINT leftFoot
      {
        OFFSET -0.13777839790000004 -4.6145792000000005 -0.22186036399999998
        CHANNELS 3 Yrotation Xrotation Zrotation
        JOINT leftToes
        {
          OFFSET -0.03777410834999995 -0.9130806927000008 0.85230013
          CHANNELS 3 Yrotation Xrotation Zrotation
          End Site
          {
            OFFSET -0.03777410834999995 -0.9130806927000008 0.85230013
          }
        }
      }
    }
  }
  JOINT rightUpperLeg
  {
    OFFSET -0.6642778626 -0.9402397400000004 0
    CHANNELS 3 Yrotation Xrotation Zrotation
    JOINT rightLowerLeg
    {
      OFFSET 0 -3.997221452859387 0
      CHANNELS 3 Yrotation Xrotation Zrotation
      JOINT rightFoot
      {
        OFFSET 0.1377926176 -4.6145792000000005 -0.22185782299999995
        CHANNELS 3 Yrotation Xrotation Zrotation
        JOINT rightToes
        {
          OFFSET 0.037780746850000047 -0.9130806927000008 0.85230167
          CHANNELS 3 Yrotation Xrotation Zrotation
          End Site
          {
            OFFSET 0.037780746850000047 -0.9130806927000008 0.85230167
          }
        }
      }
    }
  }
  JOINT spine
  {
    OFFSET 0 0.13988381660000015 0
    CHANNELS 3 Yrotation Xrotation Zrotation
    JOINT chest
    {
      OFFSET 0 0.6191039003973773 0
      CHANNELS 3 Yrotation Xrotation Zrotation
      JOINT upperChest
      {
        OFFSET 0 0.9855186130586943 0
        CHANNELS 3 Yrotation Xrotation Zrotation
        JOINT leftShoulder
        {
          OFFSET 0.1807663869 1.5087829790000005 0
          CHANNELS 3 Yrotation Xrotation Zrotation
          JOINT leftUpperArm
          {
            OFFSET 0.5985063006419806 0 0
            CHANNELS 3 Yrotation Xrotation Zrotation
            JOINT leftLowerArm
            {
              OFFSET 2.2993332369501065 0 0
              CHANNELS 3 Yrotation Xrotation Zrotation
              JOINT leftHand
              {
                OFFSET 2.395047042602395 0 0
                CHANNELS 3 Yrotation Xrotation Zrotation
                JOINT leftIndexProximal
                {
                  OFFSET 0.5766295810000004 0.04556643899499946 0.17265095988184
                  CHANNELS 3 Yrotation Xrotation Zrotation
                  JOINT leftIndexIntermediate
                  {
                    OFFSET 0.2957229000000008 -0.019352197700001517 -0.007932640616999987
                    CHANNELS 3 Yrotation Xrotation Zrotation
                    JOINT leftIndexDistal
                    {
                      OFFSET 0.19008243099999922 -0.012484908149998475 -0.002786250786000012
                      CHANNELS 3 Yrotation Xrotation Zrotation
                      End Site
                      {
                        OFFSET 0.19008243099999922 -0.012484908149998475 -0.002786250786000012
                      }
                    }
                  }
                }
                JOINT leftMiddleProximal
                {
                  OFFSET 0.5834975091000001 0.0524350405149987 0.02204081888183999
                  CHANNELS 3 Yrotation Xrotation Zrotation
                  JOINT leftMiddleIntermediate
                  {
                    OFFSET 0.33880573540000003 -0.019871473270000717 -0.00000971183179999946
                    CHANNELS 3 Yrotation Xrotation Zrotation
                    JOINT leftMiddleDistal
                    {
                      OFFSET 0.20676022730000088 -0.012221336379999448 0.0001471936708000235
                      CHANNELS 3 Yrotation Xrotation Zrotation
                      End Site
                      {
                        OFFSET 0.20676022730000088 -0.012221336379999448 0.0001471936708000235
                      }
                    }
                  }
                }
                JOINT leftLittleProximal
                {
                  OFFSET 0.5344154683999995 -0.012880921405001189 -0.24414037221816004
                  CHANNELS 3 Yrotation Xrotation Zrotation
                  JOINT leftLittleIntermediate
                  {
                    OFFSET 0.21758961730000093 -0.011650919939999227 0.011893592810000034
                    CHANNELS 3 Yrotation Xrotation Zrotation
                    JOINT leftLittleDistal
                    {
                      OFFSET 0.1475273964999999 -0.008152365682999818 0.006001092492999946
                      CHANNELS 3 Yrotation Xrotation Zrotation
                      End Site
                      {
                        OFFSET 0.1475273964999999 -0.008152365682999818 0.006001092492999946
                      }
                    }
                  }
                }
                JOINT leftRingProximal
                {
                  OFFSET 0.5799399463000003 0.026911854694997794 -0.12150566991816003
                  CHANNELS 3 Yrotation Xrotation Zrotation
                  JOINT leftRingIntermediate
                  {
                    OFFSET 0.26167887460000006 -0.013480186499999602 0.010996293000000053
                    CHANNELS 3 Yrotation Xrotation Zrotation
                    JOINT leftRingDistal
                    {
                      OFFSET 0.17667108799999987 -0.008990287899999228 0.0055541023999999065
                      CHANNELS 3 Yrotation Xrotation Zrotation
                      End Site
                      {
                        OFFSET 0.17667108799999987 -0.008990287899999228 0.0055541023999999065
                      }
                    }
                  }
                }
                JOINT leftThumbProximal
                {
                  OFFSET 0.11018806699999972 -0.09448718900500053 0.17047963138184
                  CHANNELS 3 Yrotation Xrotation Zrotation
                  JOINT leftThumbIntermediate
                  {
                    OFFSET 0.31062601459999983 -0.08126270900000132 0.15443142000000007
                    CHANNELS 3 Yrotation Xrotation Zrotation
                    JOINT leftThumbDistal
                    {
                      OFFSET 0.21627175790000086 -0.08833193599999878 0.018771167799999988
                      CHANNELS 3 Yrotation Xrotation Zrotation
                      End Site
                      {
                        OFFSET 0.21627175790000086 -0.08833193599999878 0.018771167799999988
                      }
                    }
                  }
                }
              }
            }
          }
        }
        JOINT neck
        {
          OFFSET 0 1.5463305265074576 0
          CHANNELS 3 Yrotation Xrotation Zrotation
          JOINT head
          {
            OFFSET 0 0.8456443600000344 0
            CHANNELS 3 Yrotation Xrotation Zrotation
            JOINT leftEye
            {
              OFFSET 0.30408573140000006 0.5104519199999995 0.1276382305
              CHANNELS 3 Yrotation Xrotation Zrotation
              End Site
              {
                OFFSET 0.30408573140000006 0.5104519199999995 0.1276382305
              }
            }
            JOINT rightEye
            {
              OFFSET -0.30409491089999996 0.5104519199999995 0.1276379445
              CHANNELS 3 Yrotation Xrotation Zrotation
              End Site
              {
                OFFSET -0.30409491089999996 0.5104519199999995 0.1276379445
              }
            }
            JOINT jaw
            {
              OFFSET -3.155239131000001e-7 -0.11984121820000082 0.60178107
              CHANNELS 3 Yrotation Xrotation Zrotation
              End Site
              {
                OFFSET -3.155239131000001e-7 -0.11984121820000082 0.60178107
              }
            }
          }
        }
        JOINT rightShoulder
        {
          OFFSET -0.1807303465 1.5087829790000005 0
          CHANNELS 3 Yrotation Xrotation Zrotation
          JOINT rightUpperArm
          {
            OFFSET -0.5985063796536958 0 0
            CHANNELS 3 Yrotation Xrotation Zrotation
            JOINT rightLowerArm
            {
              OFFSET -2.2993322059002854 0 0
              CHANNELS 3 Yrotation Xrotation Zrotation
              JOINT rightHand
              {
                OFFSET -2.395045314457259 0 0
                CHANNELS 3 Yrotation Xrotation Zrotation
                JOINT rightIndexProximal
                {
                  OFFSET -0.5764487688300002 0.0441371204405987 0.17361932004999997
                  CHANNELS 3 Yrotation Xrotation Zrotation
                  JOINT rightIndexIntermediate
                  {
                    OFFSET -0.29573011380000047 -0.01934826376999843 -0.007698921482999974
                    CHANNELS 3 Yrotation Xrotation Zrotation
                    JOINT rightIndexDistal
                    {
                      OFFSET -0.19008373999999884 -0.012503266380000655 -0.0026365778999999897
                      CHANNELS 3 Yrotation Xrotation Zrotation
                      End Site
                      {
                        OFFSET -0.19008373999999884 -0.012503266380000655 -0.0026365778999999897
                      }
                    }
                  }
                }
                JOINT rightMiddleProximal
                {
                  OFFSET -0.5834852037300005 0.05211639405060153 0.02307162440000001
                  CHANNELS 3 Yrotation Xrotation Zrotation
                  JOINT rightMiddleIntermediate
                  {
                    OFFSET -0.33880114510000003 -0.019952774050000954 0.0002455003561999819
                    CHANNELS 3 Yrotation Xrotation Zrotation
                    JOINT rightMiddleDistal
                    {
                      OFFSET -0.20675694929999955 -0.012273788999999091 0.00030209124000002766
                      CHANNELS 3 Yrotation Xrotation Zrotation
                      End Site
                      {
                        OFFSET -0.20675694929999955 -0.012273788999999091 0.00030209124000002766
                      }
                    }
                  }
                }
                JOINT rightLittleProximal
                {
                  OFFSET -0.5346811737299992 -0.011214256288399227 -0.24363941305000003
                  CHANNELS 3 Yrotation Xrotation Zrotation
                  JOINT rightLittleIntermediate
                  {
                    OFFSET -0.21757715980000092 -0.011771559690000988 0.01201554387
                    CHANNELS 3 Yrotation Xrotation Zrotation
                    JOINT rightLittleDistal
                    {
                      OFFSET -0.1475201849000004 -0.00822055339600003 0.006082065407000015
                      CHANNELS 3 Yrotation Xrotation Zrotation
                      End Site
                      {
                        OFFSET -0.1475201849000004 -0.00822055339600003 0.006082065407000015
                      }
                    }
                  }
                }
                JOINT rightRingProximal
                {
                  OFFSET -0.5800810755299999 0.027657985680600072 -0.12066365025000003
                  CHANNELS 3 Yrotation Xrotation Zrotation
                  JOINT rightRingIntermediate
                  {
                    OFFSET -0.26166445029999974 -0.013623118409999302 0.011164098990000045
                    CHANNELS 3 Yrotation Xrotation Zrotation
                    JOINT rightRingDistal
                    {
                      OFFSET -0.17666387530000027 -0.009072900100000503 0.005668185599999959
                      CHANNELS 3 Yrotation Xrotation Zrotation
                      End Site
                      {
                        OFFSET -0.17666387530000027 -0.009072900100000503 0.005668185599999959
                      }
                    }
                  }
                }
                JOINT rightThumbProximal
                {
                  OFFSET -0.10997596379000074 -0.09577489355940072 0.16989765924999997
                  CHANNELS 3 Yrotation Xrotation Zrotation
                  JOINT rightThumbIntermediate
                  {
                    OFFSET -0.31036620999999986 -0.08229339117999834 0.15440884469999996
                    CHANNELS 3 Yrotation Xrotation Zrotation
                    JOINT rightThumbDistal
                    {
                      OFFSET -0.21631306399999906 -0.08825326400000111 0.018656797720000014
                      CHANNELS 3 Yrotation Xrotation Zrotation
                      End Site
                      {
                        OFFSET -0.21631306399999906 -0.08825326400000111 0.018656797720000014
                      }
                    }
                  }
                }
              }
            }
          }
        }
      }
    }
  }
}
MOTION
Frames: 6
Frame Time: 0.03333333333333333
0.22008890906230819 -3.434973126016972 0.5909689163047808 0 26.650310351791063 0 -1.7577460971145875 -20.060013862046862 58.02919490109049 25.352755707431264 77.61149132195061 25.986742466029668 33.02874569104485 63.14278647765221 -2.985208825945695 0 0 0 1.9049791913886889 -20.04753133431394 -58.17675727012836 -25.3675859901318 77.61142764907173 -26.021317580130745 -33.032349703169274 63.16228869574454 3.0270988795806226 0 0 0 -0.28840103125112126 -0.9120364294077544 0.5936973631412672 -1.17009694380732 -10.239797650211223 0.7468264743312014 0 0 0 -23.98208806088654 -15.131575942376626 -12.57989143029495 -42.39078003651796 47.41150558631831 -64.73570138982096 -20.429094825731795 0.8222196054945898 -3.8166917750338216 -31.402481729295808 8.625167869503931 25.816238516756524 0 0 0 0 0 0 0 0 0 0 0 0 0 0 0 0 0 0 0 0 0 0 0 0 0 0 0 0 0 0 0 0 0 0 0 0 0 0 0 0 0 0 0 0 0 0 21.253172326463524 0 -0.7827437703149228 -37.63209705215457 5.576328413521527 0 0 0 0 0 0 0 0 0 -34.094560750391764 8.197041564671554 9.274594635317511 -11.786129449697897 -78.11943257430056 99.34416809884335 86.56399417937592 -14.909421946631298 47.64337568197071 -11.063594147738407 -37.33959213274059 36.38040863292414 0 0 0 0 0 0 0 0 0 0 0 0 0 0 0 0 0 0 0 0 0 0 0 0 0 0 0 0 0 0 0 0 0 0 0 0 0 0 0 0 0 0 0 0 0
0.22008890906230819 -3.426750123608696 0.5708547943162895 0 27.3030951522702 0 -2.2273524355361762 -20.539675737221238 57.84250437017858 25.8957440179534 77.84285751882992 26.52433885950425 32.972122590190146 63.360375930298716 -3.490802758208545 0 0 0 2.3807124277694607 -20.53030887910883 -58.00182711565469 -25.912039018452166 77.84201428887889 -26.560170751726158 -32.976761839835504 63.37833378099538 3.527646688479555 0 0 0 -0.28841946666341406 -1.1121329531703306 0.5946876814041949 -1.1721912881651688 -10.79135870970808 0.7583429052640834 0 0 0 -23.803547370877627 -14.876820819570161 -12.855129403288457 -42.39078003651796 47.41150558631831 -64.73570138982096 -20.200801684262384 0.8425362795885548 -3.761537402933975 -31.61980222669175 8.763530688155432 25.917983665561096 0 0 0 0 0 0 0 0 0 0 0 0 0 0 0 0 0 0 0 0 0 0 0 0 0 0 0 0 0 0 0 0 0 0 0 0 0 0 0 0 0 0 0 0 0 0 20.49413415608731 0 -0.7688739940268827 -38.067705757146925 5.537009951560523 0 0 0 0 0 0 0 0 0 -34.352980682133584 8.371731470259459 9.281819107974261 -11.608462474078866 -78.0527491206267 99.30677849901507 86.56399417937592 -14.909421946631298 47.64337568197071 -11.024708638100424 -37.33511214146848 36.454852169480645 0 0 0 0 0 0 0 0 0 0 0 0 0 0 0 0 0 0 0 0 0 0 0 0 0 0 0 0 0 0 0 0 0 0 0 0 0 0 0 0 0 0 0 0 0
0.22008890906230819 -3.4185271212004213 0.5507409407200695 0 27.955794636803112 0 -2.6966834467823313 -21.020636562754913 57.65941473790208 26.45956563732199 78.07312373573889 27.08277124975987 32.91076691218493 63.57769890003463 -4.000706897322083 0 0 0 2.8563096919212976 -21.014367739058667 -57.83073489359338 -26.477338018029215 78.07147135539027 -27.11987186507839 -32.91649742095253 63.594112032228246 4.032432328559165 0 0 0 -0.28844031830212624 -1.3122285257518778 0.5956771474342785 -1.1744030129880108 -11.34287222227526 0.7699017688544094 0 0 0 -23.626487607412113 -14.621250957120408 -13.129206803442186 -42.39078003651796 47.41150558631831 -64.73570138982096 -19.972496518005695 0.862632334117824 -3.7063018956451588 -31.836940621130672 8.902259597276359 26.019227716219465 0 0 0 0 0 0 0 0 0 0 0 0 0 0 0 0 0 0 0 0 0 0 0 0 0 0 0 0 0 0 0 0 0 0 0 0 0 0 0 0 0 0 0 0 0 0 19.73452949818708 0 -0.7545610431265952 -38.50262473827262 5.49737959812097 0 0 0 0 0 0 0 0 0 -34.61148946221949 8.546444537434336 9.28825125156404 -11.432010437133066 -77.98603667752151 99.27062069502884 86.56399417937592 -14.909421946631298 47.64337568197071 -10.985811489707162 -37.33066677665502 36.52929456502267 0 0 0 0 0 0 0 0 0 0 0 0 0 0 0 0 0 0 0 0 0 0 0 0 0 0 0 0 0 0 0 0 0 0 0 0 0 0 0 0 0 0 0 0 0
0.22008890906230819 -3.410304118792146 0.5306268187315781 0 28.608368262479374 0 -3.1657584649471624 -21.50286762207679 57.48010083943666 27.045385974403917 78.30221298395729 27.663201963914833 32.84458551655447 63.79476013951378 -4.514979253220021 0 0 0 3.331795701511301 -21.499606358049345 -57.6633869009245 -27.0644696429883 78.29972034664222 -27.70141032659083 -32.85149545017523 63.809643645983165 4.541520433405388 0 0 0 -0.2884657303244901 -1.5123190753839457 0.5966667401280407 -1.1767328942463307 -11.894308025177157 0.7815027051765968 0 0 0 -23.450913482728534 -14.36488882126242 -13.402141191330218 -42.39078003651796 47.41150558631831 -64.73570138982096 -19.74416762150028 0.8825075546317046 -3.650986469085712 -32.05390612284212 9.04136274023791 26.11997414162619 0 0 0 0 0 0 0 0 0 0 0 0 0 0 0 0 0 0 0 0 0 0 0 0 0 0 0 0 0 0 0 0 0 0 0 0 0 0 0 0 0 0 0 0 0 0 18.974419959888234 0 -0.73979846503935 -38.936866773461496 5.457432396146897 0 0 0 0 0 0 0 0 0 -34.870081580348696 8.721178104589352 9.293887053866277 -11.256767223348762 -77.9193119461696 99.23568961138278 86.56399417937592 -14.909421946631298 47.64337568197071 -10.946900289181892 -37.32625603212692 36.603716296502334 0 0 0 0 0 0 0 0 0 0 0 0 0 0 0 0 0 0 0 0 0 0 0 0 0 0 0 0 0 0 0 0 0 0 0 0 0 0 0 0 0 0 0 0 0
0.22008890906230819 -3.402080847991598 0.5105126967430869 0 29.26076996225766 0 -3.634610253081282 -21.986246374152227 57.30443689781612 27.6542124531881 78.53000801988941 28.266647303372473 32.77345051720726 64.0115021598238 -5.033742031588745 0 0 0 3.807208896781929 -21.9859664709065 -57.49991559654918 -27.67475772271996 78.52674545182326 -28.306104933642448 -32.78163308544118 64.02486363128381 5.055013053677367 0 0 0 -0.28849362464330264 -1.712404585668827 0.5976565491929458 -1.1791810871934987 -12.445635579458077 0.7931483962965606 0 0 0 -23.276810952495826 -14.107739075209274 -13.673920258821141 -42.39078003651796 47.41150558631831 -64.73570138982096 -19.515834968949168 0.9021619400220833 -3.5955963890307223 -32.27070617072912 9.18084309772501 26.22022625681408 0 0 0 0 0 0 0 0 0 0 0 0 0 0 0 0 0 0 0 0 0 0 0 0 0 0 0 0 0 0 0 0 0 0 0 0 0 0 0 0 0 0 0 0 0 0 18.21387382167853 0 -0.7245762855593584 -39.370418077133955 5.417154941687246 0 0 0 0 0 0 0 0 0 -35.12875526956999 8.895922592286189 9.298723596406074 -11.08271081210799 -77.8525912656414 99.20196179343436 86.56399417937592 -14.909421946631298 47.64337568197071 -10.908001645215277 -37.32189707940008 36.678156172915706 0 0 0 0 0 0 0 0 0 0 0 0 0 0 0 0 0 0 0 0 0 0 0 0 0 0 0 0 0 0 0 0 0 0 0 0 0 0 0 0 0 0 0 0 0
0.22008890906230819 -3.3938578455833235 0.4903988431468669 0 29.912959722985853 0 -4.103262893644445 -22.470732197650342 57.132573535789454 28.287498511658505 78.75650505575067 28.89454705325148 32.69726344964201 64.2279206164031 -5.557079007858591 0 0 0 4.282571463640857 -22.473361706227724 -57.34029613065539 -28.30935511402926 78.75240723732037 -28.93511341598959 -32.706783642064735 64.239752087121 5.573016433647 0 0 0 -0.2885260395391777 -1.9124840785782844 0.5986464685209895 -1.1817495977027803 -12.996841457712112 0.804842173017266 0 0 0 -23.10417877989288 -13.84982473465031 -13.9445633179832 -42.39078003651796 47.41150558631831 -64.73570138982096 -19.287485729914614 0.921593300984446 -3.5401294590828525 -32.48732726114435 9.320681174182493 26.319967356441417 0 0 0 0 0 0 0 0 0 0 0 0 0 0 0 0 0 0 0 0 0 0 0 0 0 0 0 0 0 0 0 0 0 0 0 0 0 0 0 0 0 0 0 0 0 0 17.452962439360007 0 -0.7088872953882313 -39.803264147768864 5.376540054740257 0 0 0 0 0 0 0 0 0 -35.38753165215415 9.070675319678099 9.302770089005762 -10.909173469856144 -77.78576148730205 99.16874386582779 86.56399417937592 -14.909421946631298 47.64337568197071 -10.869089027870956 -37.31757273278298 36.75259134043565 0 0 0 0 0 0 0 0 0 0 0 0 0 0 0 0 0 0 0 0 0 0 0 0 0 0 0 0 0 0 0 0 0 0 0 0 0 0 0 0 0 0 0 0 0
